<svg width="133" height="29" viewBox="0 0 133 29" fill="none" xmlns="http://www.w3.org/2000/svg">
<path d="M10.5341 11C10.4886 10.4318 10.2756 9.98864 9.89489 9.67045C9.51989 9.35227 8.94886 9.19318 8.18182 9.19318C7.69318 9.19318 7.29261 9.25284 6.98011 9.37216C6.6733 9.4858 6.44602 9.64205 6.2983 9.84091C6.15057 10.0398 6.07386 10.267 6.06818 10.5227C6.05682 10.733 6.09375 10.9233 6.17898 11.0938C6.26989 11.2585 6.41193 11.4091 6.60511 11.5455C6.7983 11.6761 7.04545 11.7955 7.34659 11.9034C7.64773 12.0114 8.00568 12.108 8.42045 12.1932L9.85227 12.5C10.8182 12.7045 11.6449 12.9744 12.3324 13.3097C13.0199 13.6449 13.5824 14.0398 14.0199 14.4943C14.4574 14.9432 14.7784 15.4489 14.983 16.0114C15.1932 16.5739 15.3011 17.1875 15.3068 17.8523C15.3011 19 15.0142 19.9716 14.446 20.767C13.8778 21.5625 13.0653 22.1676 12.0085 22.5824C10.9574 22.9972 9.69318 23.2045 8.21591 23.2045C6.69886 23.2045 5.375 22.9801 4.24432 22.5312C3.11932 22.0824 2.24432 21.392 1.61932 20.4602C1 19.5227 0.6875 18.3239 0.681818 16.8636H5.18182C5.21023 17.3977 5.34375 17.8466 5.58239 18.2102C5.82102 18.5739 6.15625 18.8494 6.58807 19.0369C7.02557 19.2244 7.54545 19.3182 8.14773 19.3182C8.65341 19.3182 9.0767 19.2557 9.41761 19.1307C9.75852 19.0057 10.017 18.8324 10.1932 18.6108C10.3693 18.3892 10.4602 18.1364 10.4659 17.8523C10.4602 17.5852 10.3722 17.3523 10.2017 17.1534C10.0369 16.9489 9.7642 16.767 9.38352 16.608C9.00284 16.4432 8.48864 16.2898 7.84091 16.1477L6.10227 15.7727C4.55682 15.4375 3.33807 14.8778 2.44602 14.0938C1.55966 13.304 1.11932 12.2273 1.125 10.8636C1.11932 9.75568 1.41477 8.78693 2.01136 7.95739C2.61364 7.12216 3.44602 6.47159 4.50852 6.00568C5.5767 5.53977 6.80114 5.30682 8.18182 5.30682C9.59091 5.30682 10.8097 5.54261 11.8381 6.0142C12.8665 6.4858 13.6591 7.15057 14.2159 8.00852C14.7784 8.8608 15.0625 9.85795 15.0682 11H10.5341ZM23.8594 16.5227H27.5412L28.8707 18.1932L31.1207 20.75L34.0526 24.2955H29.8594L27.7798 21.875L26.3821 19.8636L23.8594 16.5227ZM34.0185 14.2727C34.0185 16.2159 33.6406 17.8551 32.8849 19.1903C32.1293 20.5199 31.1094 21.5284 29.8253 22.2159C28.5412 22.8977 27.1094 23.2386 25.5298 23.2386C23.9389 23.2386 22.5014 22.8949 21.2173 22.2074C19.9389 21.5142 18.9219 20.5028 18.1662 19.1733C17.4162 17.8381 17.0412 16.2045 17.0412 14.2727C17.0412 12.3295 17.4162 10.6932 18.1662 9.36364C18.9219 8.02841 19.9389 7.01989 21.2173 6.33807C22.5014 5.65057 23.9389 5.30682 25.5298 5.30682C27.1094 5.30682 28.5412 5.65057 29.8253 6.33807C31.1094 7.01989 32.1293 8.02841 32.8849 9.36364C33.6406 10.6932 34.0185 12.3295 34.0185 14.2727ZM29.1435 14.2727C29.1435 13.2273 29.0043 12.3466 28.7259 11.6307C28.4531 10.9091 28.0469 10.3636 27.5071 9.99432C26.973 9.61932 26.3139 9.43182 25.5298 9.43182C24.7457 9.43182 24.0838 9.61932 23.544 9.99432C23.0099 10.3636 22.6037 10.9091 22.3253 11.6307C22.0526 12.3466 21.9162 13.2273 21.9162 14.2727C21.9162 15.3182 22.0526 16.2017 22.3253 16.9233C22.6037 17.6392 23.0099 18.1847 23.544 18.5597C24.0838 18.929 24.7457 19.1136 25.5298 19.1136C26.3139 19.1136 26.973 18.929 27.5071 18.5597C28.0469 18.1847 28.4531 17.6392 28.7259 16.9233C29.0043 16.2017 29.1435 15.3182 29.1435 14.2727ZM36.2344 23V5.54545H48.5071V9.36364H40.973V12.3636H47.7571V16.1818H40.973V23H36.2344ZM49.7727 9.36364V5.54545H64.9432V9.36364H59.6932V23H55.0227V9.36364H49.7727Z" fill="white"/>
<path d="M74.8068 8.86364H73.2045C73.1932 8.73106 73.1629 8.6108 73.1136 8.50284C73.0663 8.39489 73 8.30208 72.9148 8.22443C72.8314 8.14489 72.7301 8.08428 72.6108 8.04261C72.4915 7.99905 72.3561 7.97727 72.2045 7.97727C71.9394 7.97727 71.715 8.04167 71.5312 8.17045C71.3494 8.29924 71.2112 8.4839 71.1165 8.72443C71.0237 8.96496 70.9773 9.25379 70.9773 9.59091C70.9773 9.94697 71.0246 10.2453 71.1193 10.4858C71.2159 10.7244 71.3551 10.9044 71.5369 11.0256C71.7188 11.1449 71.9375 11.2045 72.1932 11.2045C72.339 11.2045 72.4697 11.1866 72.5852 11.1506C72.7008 11.1127 72.8011 11.0587 72.8864 10.9886C72.9716 10.9186 73.0407 10.8343 73.0938 10.7358C73.1487 10.6354 73.1856 10.5227 73.2045 10.3977L74.8068 10.4091C74.7879 10.6553 74.7188 10.9062 74.5994 11.1619C74.4801 11.4157 74.3106 11.6506 74.0909 11.8665C73.8731 12.0805 73.6032 12.2528 73.2812 12.3835C72.9593 12.5142 72.5852 12.5795 72.1591 12.5795C71.625 12.5795 71.1458 12.465 70.7216 12.2358C70.2992 12.0066 69.965 11.6695 69.7188 11.2244C69.4744 10.7794 69.3523 10.2348 69.3523 9.59091C69.3523 8.94318 69.4773 8.39773 69.7273 7.95455C69.9773 7.50947 70.3144 7.1733 70.7386 6.94602C71.1629 6.71686 71.6364 6.60227 72.1591 6.60227C72.5265 6.60227 72.8646 6.65246 73.1733 6.75284C73.482 6.85322 73.7528 7 73.9858 7.19318C74.2188 7.38447 74.4063 7.62027 74.5483 7.90057C74.6903 8.18087 74.7765 8.50189 74.8068 8.86364ZM81.1598 9.59091C81.1598 10.2386 81.0339 10.785 80.782 11.2301C80.5301 11.6733 80.1901 12.0095 79.7621 12.2386C79.334 12.4659 78.8568 12.5795 78.3303 12.5795C77.8 12.5795 77.3208 12.465 76.8928 12.2358C76.4666 12.0047 76.1276 11.6676 75.8757 11.2244C75.6257 10.7794 75.5007 10.2348 75.5007 9.59091C75.5007 8.94318 75.6257 8.39773 75.8757 7.95455C76.1276 7.50947 76.4666 7.1733 76.8928 6.94602C77.3208 6.71686 77.8 6.60227 78.3303 6.60227C78.8568 6.60227 79.334 6.71686 79.7621 6.94602C80.1901 7.1733 80.5301 7.50947 80.782 7.95455C81.0339 8.39773 81.1598 8.94318 81.1598 9.59091ZM79.5348 9.59091C79.5348 9.24242 79.4884 8.94886 79.3956 8.71023C79.3047 8.4697 79.1693 8.28788 78.9893 8.16477C78.8113 8.03977 78.5916 7.97727 78.3303 7.97727C78.0689 7.97727 77.8482 8.03977 77.6683 8.16477C77.4903 8.28788 77.3549 8.4697 77.2621 8.71023C77.1712 8.94886 77.1257 9.24242 77.1257 9.59091C77.1257 9.93939 77.1712 10.2339 77.2621 10.4744C77.3549 10.7131 77.4903 10.8949 77.6683 11.0199C77.8482 11.143 78.0689 11.2045 78.3303 11.2045C78.5916 11.2045 78.8113 11.143 78.9893 11.0199C79.1693 10.8949 79.3047 10.7131 79.3956 10.4744C79.4884 10.2339 79.5348 9.93939 79.5348 9.59091ZM86.9247 6.68182V12.5H85.6065L83.5043 9.44318H83.4702V12.5H81.8906V6.68182H83.2315L85.2997 9.72727H85.3452V6.68182H86.9247ZM87.5128 7.95455V6.68182H92.5696V7.95455H90.8196V12.5H89.2628V7.95455H87.5128ZM93.1641 12.5V6.68182H95.6754C96.1072 6.68182 96.4851 6.76042 96.8089 6.91761C97.1328 7.07481 97.3847 7.30114 97.5646 7.59659C97.7446 7.89205 97.8345 8.24621 97.8345 8.65909C97.8345 9.07576 97.7417 9.42708 97.5561 9.71307C97.3724 9.99905 97.1139 10.215 96.7805 10.3608C96.4491 10.5066 96.0618 10.5795 95.6186 10.5795H94.1186V9.35227H95.3004C95.486 9.35227 95.6442 9.32955 95.7749 9.28409C95.9074 9.23674 96.0088 9.16193 96.0788 9.05966C96.1508 8.95739 96.1868 8.82386 96.1868 8.65909C96.1868 8.49242 96.1508 8.35701 96.0788 8.25284C96.0088 8.14678 95.9074 8.06913 95.7749 8.01989C95.6442 7.96875 95.486 7.94318 95.3004 7.94318H94.7436V12.5H93.1641ZM96.5732 9.82955L98.0277 12.5H96.3118L94.8913 9.82955H96.5732ZM100.019 12.5H98.3146L100.235 6.68182H102.394L104.315 12.5H102.61L101.337 8.28409H101.292L100.019 12.5ZM99.701 10.2045H102.906V11.3864H99.701V10.2045ZM110.033 8.86364H108.431C108.42 8.73106 108.389 8.6108 108.34 8.50284C108.293 8.39489 108.227 8.30208 108.141 8.22443C108.058 8.14489 107.957 8.08428 107.837 8.04261C107.718 7.99905 107.583 7.97727 107.431 7.97727C107.166 7.97727 106.942 8.04167 106.758 8.17045C106.576 8.29924 106.438 8.4839 106.343 8.72443C106.25 8.96496 106.204 9.25379 106.204 9.59091C106.204 9.94697 106.251 10.2453 106.346 10.4858C106.442 10.7244 106.582 10.9044 106.763 11.0256C106.945 11.1449 107.164 11.2045 107.42 11.2045C107.566 11.2045 107.696 11.1866 107.812 11.1506C107.927 11.1127 108.028 11.0587 108.113 10.9886C108.198 10.9186 108.267 10.8343 108.32 10.7358C108.375 10.6354 108.412 10.5227 108.431 10.3977L110.033 10.4091C110.014 10.6553 109.945 10.9062 109.826 11.1619C109.707 11.4157 109.537 11.6506 109.317 11.8665C109.1 12.0805 108.83 12.2528 108.508 12.3835C108.186 12.5142 107.812 12.5795 107.386 12.5795C106.852 12.5795 106.372 12.465 105.948 12.2358C105.526 12.0066 105.192 11.6695 104.945 11.2244C104.701 10.7794 104.579 10.2348 104.579 9.59091C104.579 8.94318 104.704 8.39773 104.954 7.95455C105.204 7.50947 105.541 7.1733 105.965 6.94602C106.389 6.71686 106.863 6.60227 107.386 6.60227C107.753 6.60227 108.091 6.65246 108.4 6.75284C108.709 6.85322 108.979 7 109.212 7.19318C109.445 7.38447 109.633 7.62027 109.775 7.90057C109.917 8.18087 110.003 8.50189 110.033 8.86364ZM110.591 7.95455V6.68182H115.648V7.95455H113.898V12.5H112.341V7.95455H110.591ZM117.822 6.68182V12.5H116.242V6.68182H117.822ZM123.604 6.68182V12.5H122.286L120.184 9.44318H120.15V12.5H118.57V6.68182H119.911L121.979 9.72727H122.025V6.68182H123.604ZM128.13 8.60227C128.105 8.50189 128.067 8.41383 128.013 8.33807C127.96 8.26042 127.894 8.19508 127.815 8.14205C127.737 8.08712 127.646 8.0464 127.542 8.01989C127.44 7.99148 127.327 7.97727 127.204 7.97727C126.939 7.97727 126.712 8.04072 126.525 8.16761C126.339 8.29451 126.197 8.47727 126.099 8.71591C126.002 8.95455 125.954 9.24242 125.954 9.57955C125.954 9.92045 126 10.2121 126.093 10.4545C126.186 10.697 126.324 10.8826 126.508 11.0114C126.692 11.1402 126.92 11.2045 127.192 11.2045C127.433 11.2045 127.633 11.1695 127.792 11.0994C127.953 11.0294 128.073 10.9299 128.153 10.8011C128.232 10.6723 128.272 10.5208 128.272 10.3466L128.545 10.375H127.215V9.25H129.795V10.0568C129.795 10.5871 129.682 11.0407 129.457 11.4176C129.233 11.7926 128.924 12.0805 128.531 12.2812C128.138 12.4801 127.689 12.5795 127.181 12.5795C126.615 12.5795 126.118 12.4593 125.69 12.2188C125.262 11.9782 124.927 11.6354 124.687 11.1903C124.448 10.7453 124.329 10.2159 124.329 9.60227C124.329 9.12121 124.402 8.69508 124.548 8.32386C124.695 7.95265 124.9 7.6392 125.161 7.38352C125.423 7.12595 125.725 6.93182 126.067 6.80114C126.41 6.66856 126.778 6.60227 127.17 6.60227C127.514 6.60227 127.835 6.65152 128.13 6.75C128.427 6.84659 128.69 6.98485 128.917 7.16477C129.146 7.3428 129.331 7.55398 129.471 7.7983C129.611 8.04261 129.696 8.31061 129.727 8.60227H128.13Z" fill="white"/>
<path d="M72.5114 18.5C72.4962 18.3106 72.4252 18.1629 72.2983 18.0568C72.1733 17.9508 71.983 17.8977 71.7273 17.8977C71.5644 17.8977 71.4309 17.9176 71.3267 17.9574C71.2244 17.9953 71.1487 18.0473 71.0994 18.1136C71.0502 18.1799 71.0246 18.2557 71.0227 18.3409C71.0189 18.411 71.0313 18.4744 71.0597 18.5312C71.09 18.5862 71.1373 18.6364 71.2017 18.6818C71.2661 18.7254 71.3485 18.7652 71.4489 18.8011C71.5492 18.8371 71.6686 18.8693 71.8068 18.8977L72.2841 19C72.6061 19.0682 72.8816 19.1581 73.1108 19.2699C73.34 19.3816 73.5275 19.5133 73.6733 19.6648C73.8191 19.8144 73.9261 19.983 73.9943 20.1705C74.0644 20.358 74.1004 20.5625 74.1023 20.7841C74.1004 21.1667 74.0047 21.4905 73.8153 21.7557C73.6259 22.0208 73.3551 22.2225 73.0028 22.3608C72.6525 22.4991 72.2311 22.5682 71.7386 22.5682C71.233 22.5682 70.7917 22.4934 70.4148 22.3438C70.0398 22.1941 69.7481 21.964 69.5398 21.6534C69.3333 21.3409 69.2292 20.9413 69.2273 20.4545H70.7273C70.7367 20.6326 70.7813 20.7822 70.8608 20.9034C70.9403 21.0246 71.0521 21.1165 71.196 21.179C71.3419 21.2415 71.5152 21.2727 71.7159 21.2727C71.8845 21.2727 72.0256 21.2519 72.1392 21.2102C72.2528 21.1686 72.339 21.1108 72.3977 21.0369C72.4564 20.9631 72.4867 20.8788 72.4886 20.7841C72.4867 20.6951 72.4574 20.6174 72.4006 20.5511C72.3456 20.483 72.2547 20.4223 72.1278 20.3693C72.0009 20.3144 71.8295 20.2633 71.6136 20.2159L71.0341 20.0909C70.5189 19.9792 70.1127 19.7926 69.8153 19.5312C69.5199 19.268 69.3731 18.9091 69.375 18.4545C69.3731 18.0852 69.4716 17.7623 69.6705 17.4858C69.8712 17.2074 70.1487 16.9905 70.5028 16.8352C70.8589 16.6799 71.267 16.6023 71.7273 16.6023C72.197 16.6023 72.6032 16.6809 72.946 16.8381C73.2888 16.9953 73.553 17.2169 73.7386 17.5028C73.9261 17.7869 74.0208 18.1193 74.0227 18.5H72.5114ZM74.7031 22.5V16.6818H78.8963V17.9545H76.2827V18.9545H78.6804V20.2273H76.2827V21.2273H78.8849V22.5H74.7031ZM79.6797 22.5V16.6818H82.1911C82.6229 16.6818 83.0007 16.7604 83.3246 16.9176C83.6484 17.0748 83.9003 17.3011 84.0803 17.5966C84.2602 17.892 84.3501 18.2462 84.3501 18.6591C84.3501 19.0758 84.2573 19.4271 84.0717 19.7131C83.888 19.9991 83.6295 20.215 83.2962 20.3608C82.9647 20.5066 82.5774 20.5795 82.1342 20.5795H80.6342V19.3523H81.8161C82.0017 19.3523 82.1598 19.3295 82.2905 19.2841C82.4231 19.2367 82.5244 19.1619 82.5945 19.0597C82.6664 18.9574 82.7024 18.8239 82.7024 18.6591C82.7024 18.4924 82.6664 18.357 82.5945 18.2528C82.5244 18.1468 82.4231 18.0691 82.2905 18.0199C82.1598 17.9687 82.0017 17.9432 81.8161 17.9432H81.2592V22.5H79.6797ZM83.0888 19.8295L84.5433 22.5H82.8274L81.407 19.8295H83.0888ZM86.4347 16.6818L87.6278 20.7841H87.6733L88.8665 16.6818H90.6506L88.7301 22.5H86.571L84.6506 16.6818H86.4347ZM92.7905 16.6818V22.5H91.2109V16.6818H92.7905ZM98.9709 18.8636H97.3686C97.3572 18.7311 97.3269 18.6108 97.2777 18.5028C97.2304 18.3949 97.1641 18.3021 97.0788 18.2244C96.9955 18.1449 96.8942 18.0843 96.7749 18.0426C96.6555 17.9991 96.5201 17.9773 96.3686 17.9773C96.1035 17.9773 95.879 18.0417 95.6953 18.1705C95.5135 18.2992 95.3752 18.4839 95.2805 18.7244C95.1877 18.965 95.1413 19.2538 95.1413 19.5909C95.1413 19.947 95.1887 20.2453 95.2834 20.4858C95.38 20.7244 95.5192 20.9044 95.701 21.0256C95.8828 21.1449 96.1016 21.2045 96.3572 21.2045C96.5031 21.2045 96.6338 21.1866 96.7493 21.1506C96.8648 21.1127 96.9652 21.0587 97.0504 20.9886C97.1357 20.9186 97.2048 20.8343 97.2578 20.7358C97.3127 20.6354 97.3497 20.5227 97.3686 20.3977L98.9709 20.4091C98.9519 20.6553 98.8828 20.9062 98.7635 21.1619C98.6442 21.4157 98.4747 21.6506 98.255 21.8665C98.0372 22.0805 97.7673 22.2528 97.4453 22.3835C97.1233 22.5142 96.7493 22.5795 96.3232 22.5795C95.7891 22.5795 95.3099 22.465 94.8857 22.2358C94.4633 22.0066 94.129 21.6695 93.8828 21.2244C93.6385 20.7794 93.5163 20.2348 93.5163 19.5909C93.5163 18.9432 93.6413 18.3977 93.8913 17.9545C94.1413 17.5095 94.4785 17.1733 94.9027 16.946C95.3269 16.7169 95.8004 16.6023 96.3232 16.6023C96.6906 16.6023 97.0286 16.6525 97.3374 16.7528C97.6461 16.8532 97.9169 17 98.1499 17.1932C98.3828 17.3845 98.5703 17.6203 98.7124 17.9006C98.8544 18.1809 98.9406 18.5019 98.9709 18.8636ZM99.6875 22.5V16.6818H103.881V17.9545H101.267V18.9545H103.665V20.2273H101.267V21.2273H103.869V22.5H99.6875ZM107.8 18.5C107.785 18.3106 107.714 18.1629 107.587 18.0568C107.462 17.9508 107.272 17.8977 107.016 17.8977C106.853 17.8977 106.72 17.9176 106.616 17.9574C106.513 17.9953 106.438 18.0473 106.388 18.1136C106.339 18.1799 106.314 18.2557 106.312 18.3409C106.308 18.411 106.32 18.4744 106.349 18.5312C106.379 18.5862 106.426 18.6364 106.491 18.6818C106.555 18.7254 106.638 18.7652 106.738 18.8011C106.838 18.8371 106.958 18.8693 107.096 18.8977L107.573 19C107.895 19.0682 108.171 19.1581 108.4 19.2699C108.629 19.3816 108.817 19.5133 108.962 19.6648C109.108 19.8144 109.215 19.983 109.283 20.1705C109.353 20.358 109.389 20.5625 109.391 20.7841C109.389 21.1667 109.294 21.4905 109.104 21.7557C108.915 22.0208 108.644 22.2225 108.292 22.3608C107.942 22.4991 107.52 22.5682 107.028 22.5682C106.522 22.5682 106.081 22.4934 105.704 22.3438C105.329 22.1941 105.037 21.964 104.829 21.6534C104.622 21.3409 104.518 20.9413 104.516 20.4545H106.016C106.026 20.6326 106.07 20.7822 106.15 20.9034C106.229 21.0246 106.341 21.1165 106.485 21.179C106.631 21.2415 106.804 21.2727 107.005 21.2727C107.174 21.2727 107.315 21.2519 107.428 21.2102C107.542 21.1686 107.628 21.1108 107.687 21.0369C107.746 20.9631 107.776 20.8788 107.778 20.7841C107.776 20.6951 107.746 20.6174 107.69 20.5511C107.635 20.483 107.544 20.4223 107.417 20.3693C107.29 20.3144 107.119 20.2633 106.903 20.2159L106.323 20.0909C105.808 19.9792 105.402 19.7926 105.104 19.5312C104.809 19.268 104.662 18.9091 104.664 18.4545C104.662 18.0852 104.761 17.7623 104.96 17.4858C105.16 17.2074 105.438 16.9905 105.792 16.8352C106.148 16.6799 106.556 16.6023 107.016 16.6023C107.486 16.6023 107.892 16.6809 108.235 16.8381C108.578 16.9953 108.842 17.2169 109.028 17.5028C109.215 17.7869 109.31 18.1193 109.312 18.5H107.8Z" fill="white"/>
</svg>
