<svg width="260" height="58" viewBox="0 0 260 58" fill="none" xmlns="http://www.w3.org/2000/svg">
<path d="M21.0682 22C20.9773 20.8636 20.5511 19.9773 19.7898 19.3409C19.0398 18.7045 17.8977 18.3864 16.3636 18.3864C15.3864 18.3864 14.5852 18.5057 13.9602 18.7443C13.3466 18.9716 12.892 19.2841 12.5966 19.6818C12.3011 20.0795 12.1477 20.5341 12.1364 21.0455C12.1136 21.4659 12.1875 21.8466 12.358 22.1875C12.5398 22.517 12.8239 22.8182 13.2102 23.0909C13.5966 23.3523 14.0909 23.5909 14.6932 23.8068C15.2955 24.0227 16.0114 24.2159 16.8409 24.3864L19.7045 25C21.6364 25.4091 23.2898 25.9489 24.6648 26.6193C26.0398 27.2898 27.1648 28.0795 28.0398 28.9886C28.9148 29.8864 29.5568 30.8977 29.9659 32.0227C30.3864 33.1477 30.6023 34.375 30.6136 35.7045C30.6023 38 30.0284 39.9432 28.892 41.5341C27.7557 43.125 26.1307 44.3352 24.017 45.1648C21.9148 45.9943 19.3864 46.4091 16.4318 46.4091C13.3977 46.4091 10.75 45.9602 8.48864 45.0625C6.23864 44.1648 4.48864 42.7841 3.23864 40.9205C2 39.0455 1.375 36.6477 1.36364 33.7273H10.3636C10.4205 34.7955 10.6875 35.6932 11.1648 36.4205C11.642 37.1477 12.3125 37.6989 13.1761 38.0739C14.0511 38.4489 15.0909 38.6364 16.2955 38.6364C17.3068 38.6364 18.1534 38.5114 18.8352 38.2614C19.517 38.0114 20.0341 37.6648 20.3864 37.2216C20.7386 36.7784 20.9205 36.2727 20.9318 35.7045C20.9205 35.1705 20.7443 34.7045 20.4034 34.3068C20.0739 33.8977 19.5284 33.5341 18.767 33.2159C18.0057 32.8864 16.9773 32.5795 15.6818 32.2955L12.2045 31.5455C9.11364 30.875 6.67614 29.7557 4.89205 28.1875C3.11932 26.608 2.23864 24.4545 2.25 21.7273C2.23864 19.5114 2.82955 17.5739 4.02273 15.9148C5.22727 14.2443 6.89205 12.9432 9.01705 12.0114C11.1534 11.0795 13.6023 10.6136 16.3636 10.6136C19.1818 10.6136 21.6193 11.0852 23.6761 12.0284C25.733 12.9716 27.3182 14.3011 28.4318 16.017C29.5568 17.7216 30.125 19.7159 30.1364 22H21.0682ZM47.7188 33.0455H55.0824L57.7415 36.3864L62.2415 41.5L68.1051 48.5909H59.7188L55.5597 43.75L52.7642 39.7273L47.7188 33.0455ZM68.0369 28.5455C68.0369 32.4318 67.2813 35.7102 65.7699 38.3807C64.2585 41.0398 62.2188 43.0568 59.6506 44.4318C57.0824 45.7955 54.2188 46.4773 51.0597 46.4773C47.8778 46.4773 45.0028 45.7898 42.4347 44.4148C39.8778 43.0284 37.8438 41.0057 36.3324 38.3466C34.8324 35.6761 34.0824 32.4091 34.0824 28.5455C34.0824 24.6591 34.8324 21.3864 36.3324 18.7273C37.8438 16.0568 39.8778 14.0398 42.4347 12.6761C45.0028 11.3011 47.8778 10.6136 51.0597 10.6136C54.2188 10.6136 57.0824 11.3011 59.6506 12.6761C62.2188 14.0398 64.2585 16.0568 65.7699 18.7273C67.2813 21.3864 68.0369 24.6591 68.0369 28.5455ZM58.2869 28.5455C58.2869 26.4545 58.0085 24.6932 57.4517 23.2614C56.9062 21.8182 56.0938 20.7273 55.0142 19.9886C53.946 19.2386 52.6278 18.8636 51.0597 18.8636C49.4915 18.8636 48.1676 19.2386 47.0881 19.9886C46.0199 20.7273 45.2074 21.8182 44.6506 23.2614C44.1051 24.6932 43.8324 26.4545 43.8324 28.5455C43.8324 30.6364 44.1051 32.4034 44.6506 33.8466C45.2074 35.2784 46.0199 36.3693 47.0881 37.1193C48.1676 37.858 49.4915 38.2273 51.0597 38.2273C52.6278 38.2273 53.946 37.858 55.0142 37.1193C56.0938 36.3693 56.9062 35.2784 57.4517 33.8466C58.0085 32.4034 58.2869 30.6364 58.2869 28.5455ZM72.4688 46V11.0909H97.0142V18.7273H81.946V24.7273H95.5142V32.3636H81.946V46H72.4688ZM99.5455 18.7273V11.0909H129.886V18.7273H119.386V46H110.045V18.7273H99.5455Z" fill="#FFFFFF"/>
<path d="M148.614 17.7273H145.409C145.386 17.4621 145.326 17.2216 145.227 17.0057C145.133 16.7898 145 16.6042 144.83 16.4489C144.663 16.2898 144.46 16.1686 144.222 16.0852C143.983 15.9981 143.712 15.9545 143.409 15.9545C142.879 15.9545 142.43 16.0833 142.062 16.3409C141.699 16.5985 141.422 16.9678 141.233 17.4489C141.047 17.9299 140.955 18.5076 140.955 19.1818C140.955 19.8939 141.049 20.4905 141.239 20.9716C141.432 21.4489 141.71 21.8087 142.074 22.0511C142.438 22.2898 142.875 22.4091 143.386 22.4091C143.678 22.4091 143.939 22.3731 144.17 22.3011C144.402 22.2254 144.602 22.1174 144.773 21.9773C144.943 21.8371 145.081 21.6686 145.188 21.4716C145.297 21.2708 145.371 21.0455 145.409 20.7955L148.614 20.8182C148.576 21.3106 148.438 21.8125 148.199 22.3239C147.96 22.8314 147.621 23.3011 147.182 23.733C146.746 24.161 146.206 24.5057 145.562 24.767C144.919 25.0284 144.17 25.1591 143.318 25.1591C142.25 25.1591 141.292 24.9299 140.443 24.4716C139.598 24.0133 138.93 23.339 138.438 22.4489C137.949 21.5587 137.705 20.4697 137.705 19.1818C137.705 17.8864 137.955 16.7955 138.455 15.9091C138.955 15.0189 139.629 14.3466 140.477 13.892C141.326 13.4337 142.273 13.2045 143.318 13.2045C144.053 13.2045 144.729 13.3049 145.347 13.5057C145.964 13.7064 146.506 14 146.972 14.3864C147.438 14.7689 147.813 15.2405 148.097 15.8011C148.381 16.3617 148.553 17.0038 148.614 17.7273ZM161.32 19.1818C161.32 20.4773 161.068 21.5701 160.564 22.4602C160.06 23.3466 159.38 24.0189 158.524 24.4773C157.668 24.9318 156.714 25.1591 155.661 25.1591C154.6 25.1591 153.642 24.9299 152.786 24.4716C151.933 24.0095 151.255 23.3352 150.751 22.4489C150.251 21.5587 150.001 20.4697 150.001 19.1818C150.001 17.8864 150.251 16.7955 150.751 15.9091C151.255 15.0189 151.933 14.3466 152.786 13.892C153.642 13.4337 154.6 13.2045 155.661 13.2045C156.714 13.2045 157.668 13.4337 158.524 13.892C159.38 14.3466 160.06 15.0189 160.564 15.9091C161.068 16.7955 161.32 17.8864 161.32 19.1818ZM158.07 19.1818C158.07 18.4848 157.977 17.8977 157.791 17.4205C157.609 16.9394 157.339 16.5758 156.979 16.3295C156.623 16.0795 156.183 15.9545 155.661 15.9545C155.138 15.9545 154.696 16.0795 154.337 16.3295C153.981 16.5758 153.71 16.9394 153.524 17.4205C153.342 17.8977 153.251 18.4848 153.251 19.1818C153.251 19.8788 153.342 20.4678 153.524 20.9489C153.71 21.4261 153.981 21.7898 154.337 22.0398C154.696 22.286 155.138 22.4091 155.661 22.4091C156.183 22.4091 156.623 22.286 156.979 22.0398C157.339 21.7898 157.609 21.4261 157.791 20.9489C157.977 20.4678 158.07 19.8788 158.07 19.1818ZM172.849 13.3636V25H170.213L166.009 18.8864H165.94V25H162.781V13.3636H165.463L169.599 19.4545H169.69V13.3636H172.849ZM174.026 15.9091V13.3636H184.139V15.9091H180.639V25H177.526V15.9091H174.026ZM185.328 25V13.3636H190.351C191.214 13.3636 191.97 13.5208 192.618 13.8352C193.266 14.1496 193.769 14.6023 194.129 15.1932C194.489 15.7841 194.669 16.4924 194.669 17.3182C194.669 18.1515 194.483 18.8542 194.112 19.4261C193.745 19.9981 193.228 20.4299 192.561 20.7216C191.898 21.0133 191.124 21.1591 190.237 21.1591H187.237V18.7045H189.601C189.972 18.7045 190.288 18.6591 190.55 18.5682C190.815 18.4735 191.018 18.3239 191.158 18.1193C191.302 17.9148 191.374 17.6477 191.374 17.3182C191.374 16.9848 191.302 16.714 191.158 16.5057C191.018 16.2936 190.815 16.1383 190.55 16.0398C190.288 15.9375 189.972 15.8864 189.601 15.8864H188.487V25H185.328ZM192.146 19.6591L195.055 25H191.624L188.783 19.6591H192.146ZM199.038 25H195.629L199.47 13.3636H203.788L207.629 25H204.22L201.675 16.5682H201.584L199.038 25ZM198.402 20.4091H204.811V22.7727H198.402V20.4091ZM219.067 17.7273H215.862C215.839 17.4621 215.779 17.2216 215.68 17.0057C215.586 16.7898 215.453 16.6042 215.283 16.4489C215.116 16.2898 214.913 16.1686 214.675 16.0852C214.436 15.9981 214.165 15.9545 213.862 15.9545C213.332 15.9545 212.883 16.0833 212.516 16.3409C212.152 16.5985 211.875 16.9678 211.686 17.4489C211.5 17.9299 211.408 18.5076 211.408 19.1818C211.408 19.8939 211.502 20.4905 211.692 20.9716C211.885 21.4489 212.163 21.8087 212.527 22.0511C212.891 22.2898 213.328 22.4091 213.839 22.4091C214.131 22.4091 214.393 22.3731 214.624 22.3011C214.855 22.2254 215.055 22.1174 215.226 21.9773C215.396 21.8371 215.535 21.6686 215.641 21.4716C215.75 21.2708 215.824 21.0455 215.862 20.7955L219.067 20.8182C219.029 21.3106 218.891 21.8125 218.652 22.3239C218.413 22.8314 218.074 23.3011 217.635 23.733C217.199 24.161 216.66 24.5057 216.016 24.767C215.372 25.0284 214.624 25.1591 213.771 25.1591C212.703 25.1591 211.745 24.9299 210.896 24.4716C210.052 24.0133 209.383 23.339 208.891 22.4489C208.402 21.5587 208.158 20.4697 208.158 19.1818C208.158 17.8864 208.408 16.7955 208.908 15.9091C209.408 15.0189 210.082 14.3466 210.93 13.892C211.779 13.4337 212.726 13.2045 213.771 13.2045C214.506 13.2045 215.182 13.3049 215.8 13.5057C216.417 13.7064 216.959 14 217.425 14.3864C217.891 14.7689 218.266 15.2405 218.55 15.8011C218.834 16.3617 219.006 17.0038 219.067 17.7273ZM220.182 15.9091V13.3636H230.295V15.9091H226.795V25H223.682V15.9091H220.182ZM234.643 13.3636V25H231.484V13.3636H234.643ZM246.209 13.3636V25H243.572L239.368 18.8864H239.3V25H236.141V13.3636H238.822L242.959 19.4545H243.05V13.3636H246.209ZM255.26 17.2045C255.211 17.0038 255.133 16.8277 255.027 16.6761C254.921 16.5208 254.788 16.3902 254.629 16.2841C254.474 16.1742 254.292 16.0928 254.084 16.0398C253.879 15.983 253.654 15.9545 253.408 15.9545C252.877 15.9545 252.425 16.0814 252.05 16.3352C251.679 16.589 251.394 16.9545 251.197 17.4318C251.004 17.9091 250.908 18.4848 250.908 19.1591C250.908 19.8409 251 20.4242 251.186 20.9091C251.372 21.3939 251.648 21.7652 252.016 22.0227C252.383 22.2803 252.839 22.4091 253.385 22.4091C253.866 22.4091 254.266 22.339 254.584 22.1989C254.906 22.0587 255.146 21.8598 255.305 21.6023C255.464 21.3447 255.544 21.0417 255.544 20.6932L256.089 20.75H253.43V18.5H258.589V20.1136C258.589 21.1742 258.364 22.0814 257.913 22.8352C257.466 23.5852 256.849 24.161 256.061 24.5625C255.277 24.9602 254.377 25.1591 253.362 25.1591C252.23 25.1591 251.235 24.9186 250.379 24.4375C249.523 23.9564 248.855 23.2708 248.374 22.3807C247.896 21.4905 247.658 20.4318 247.658 19.2045C247.658 18.2424 247.804 17.3902 248.095 16.6477C248.391 15.9053 248.8 15.2784 249.322 14.767C249.845 14.2519 250.449 13.8636 251.135 13.6023C251.821 13.3371 252.555 13.2045 253.339 13.2045C254.029 13.2045 254.669 13.303 255.26 13.5C255.855 13.6932 256.379 13.9697 256.834 14.3295C257.292 14.6856 257.661 15.108 257.942 15.5966C258.222 16.0852 258.393 16.6212 258.453 17.2045H255.26Z" fill="#FFFFFF"/>
<path d="M144.023 36C143.992 35.6212 143.85 35.3258 143.597 35.1136C143.347 34.9015 142.966 34.7955 142.455 34.7955C142.129 34.7955 141.862 34.8352 141.653 34.9148C141.449 34.9905 141.297 35.0947 141.199 35.2273C141.1 35.3598 141.049 35.5114 141.045 35.6818C141.038 35.822 141.063 35.9489 141.119 36.0625C141.18 36.1723 141.275 36.2727 141.403 36.3636C141.532 36.4508 141.697 36.5303 141.898 36.6023C142.098 36.6742 142.337 36.7386 142.614 36.7955L143.568 37C144.212 37.1364 144.763 37.3163 145.222 37.5398C145.68 37.7633 146.055 38.0265 146.347 38.3295C146.638 38.6288 146.852 38.9659 146.989 39.3409C147.129 39.7159 147.201 40.125 147.205 40.5682C147.201 41.3333 147.009 41.9811 146.631 42.5114C146.252 43.0417 145.71 43.4451 145.006 43.7216C144.305 43.9981 143.462 44.1364 142.477 44.1364C141.466 44.1364 140.583 43.9867 139.83 43.6875C139.08 43.3883 138.496 42.928 138.08 42.3068C137.667 41.6818 137.458 40.8826 137.455 39.9091H140.455C140.473 40.2652 140.563 40.5644 140.722 40.8068C140.881 41.0492 141.104 41.233 141.392 41.358C141.684 41.483 142.03 41.5455 142.432 41.5455C142.769 41.5455 143.051 41.5038 143.278 41.4205C143.506 41.3371 143.678 41.2216 143.795 41.0739C143.913 40.9261 143.973 40.7576 143.977 40.5682C143.973 40.3902 143.915 40.2348 143.801 40.1023C143.691 39.9659 143.509 39.8447 143.256 39.7386C143.002 39.6288 142.659 39.5265 142.227 39.4318L141.068 39.1818C140.038 38.9583 139.225 38.5852 138.631 38.0625C138.04 37.536 137.746 36.8182 137.75 35.9091C137.746 35.1705 137.943 34.5246 138.341 33.9716C138.742 33.4148 139.297 32.9811 140.006 32.6705C140.718 32.3598 141.534 32.2045 142.455 32.2045C143.394 32.2045 144.206 32.3617 144.892 32.6761C145.578 32.9905 146.106 33.4337 146.477 34.0057C146.852 34.5739 147.042 35.2386 147.045 36H144.023ZM148.406 44V32.3636H156.793V34.9091H151.565V36.9091H156.361V39.4545H151.565V41.4545H156.77V44H148.406ZM158.359 44V32.3636H163.382C164.246 32.3636 165.001 32.5208 165.649 32.8352C166.297 33.1496 166.801 33.6023 167.161 34.1932C167.52 34.7841 167.7 35.4924 167.7 36.3182C167.7 37.1515 167.515 37.8542 167.143 38.4261C166.776 38.9981 166.259 39.4299 165.592 39.7216C164.929 40.0133 164.155 40.1591 163.268 40.1591H160.268V37.7045H162.632C163.003 37.7045 163.32 37.6591 163.581 37.5682C163.846 37.4735 164.049 37.3239 164.189 37.1193C164.333 36.9148 164.405 36.6477 164.405 36.3182C164.405 35.9848 164.333 35.714 164.189 35.5057C164.049 35.2936 163.846 35.1383 163.581 35.0398C163.32 34.9375 163.003 34.8864 162.632 34.8864H161.518V44H158.359ZM165.178 38.6591L168.087 44H164.655L161.814 38.6591H165.178ZM171.869 32.3636L174.256 40.5682H174.347L176.733 32.3636H180.301L176.46 44H172.142L168.301 32.3636H171.869ZM184.581 32.3636V44H181.422V32.3636H184.581ZM196.942 36.7273H193.737C193.714 36.4621 193.654 36.2216 193.555 36.0057C193.461 35.7898 193.328 35.6042 193.158 35.4489C192.991 35.2898 192.788 35.1686 192.55 35.0852C192.311 34.9981 192.04 34.9545 191.737 34.9545C191.207 34.9545 190.758 35.0833 190.391 35.3409C190.027 35.5985 189.75 35.9678 189.561 36.4489C189.375 36.9299 189.283 37.5076 189.283 38.1818C189.283 38.8939 189.377 39.4905 189.567 39.9716C189.76 40.4489 190.038 40.8087 190.402 41.0511C190.766 41.2898 191.203 41.4091 191.714 41.4091C192.006 41.4091 192.268 41.3731 192.499 41.3011C192.73 41.2254 192.93 41.1174 193.101 40.9773C193.271 40.8371 193.41 40.6686 193.516 40.4716C193.625 40.2708 193.699 40.0455 193.737 39.7955L196.942 39.8182C196.904 40.3106 196.766 40.8125 196.527 41.3239C196.288 41.8314 195.949 42.3011 195.51 42.733C195.074 43.161 194.535 43.5057 193.891 43.767C193.247 44.0284 192.499 44.1591 191.646 44.1591C190.578 44.1591 189.62 43.9299 188.771 43.4716C187.927 43.0133 187.258 42.339 186.766 41.4489C186.277 40.5587 186.033 39.4697 186.033 38.1818C186.033 36.8864 186.283 35.7955 186.783 34.9091C187.283 34.0189 187.957 33.3466 188.805 32.892C189.654 32.4337 190.601 32.2045 191.646 32.2045C192.381 32.2045 193.057 32.3049 193.675 32.5057C194.292 32.7064 194.834 33 195.3 33.3864C195.766 33.7689 196.141 34.2405 196.425 34.8011C196.709 35.3617 196.881 36.0038 196.942 36.7273ZM198.375 44V32.3636H206.761V34.9091H201.534V36.9091H206.33V39.4545H201.534V41.4545H206.739V44H198.375ZM214.601 36C214.571 35.6212 214.429 35.3258 214.175 35.1136C213.925 34.9015 213.544 34.7955 213.033 34.7955C212.707 34.7955 212.44 34.8352 212.232 34.9148C212.027 34.9905 211.875 35.0947 211.777 35.2273C211.679 35.3598 211.627 35.5114 211.624 35.6818C211.616 35.822 211.641 35.9489 211.697 36.0625C211.758 36.1723 211.853 36.2727 211.982 36.3636C212.11 36.4508 212.275 36.5303 212.476 36.6023C212.677 36.6742 212.915 36.7386 213.192 36.7955L214.146 37C214.79 37.1364 215.341 37.3163 215.8 37.5398C216.258 37.7633 216.633 38.0265 216.925 38.3295C217.216 38.6288 217.43 38.9659 217.567 39.3409C217.707 39.7159 217.779 40.125 217.783 40.5682C217.779 41.3333 217.588 41.9811 217.209 42.5114C216.83 43.0417 216.288 43.4451 215.584 43.7216C214.883 43.9981 214.04 44.1364 213.055 44.1364C212.044 44.1364 211.161 43.9867 210.408 43.6875C209.658 43.3883 209.074 42.928 208.658 42.3068C208.245 41.6818 208.036 40.8826 208.033 39.9091H211.033C211.052 40.2652 211.141 40.5644 211.3 40.8068C211.459 41.0492 211.682 41.233 211.97 41.358C212.262 41.483 212.608 41.5455 213.01 41.5455C213.347 41.5455 213.629 41.5038 213.857 41.4205C214.084 41.3371 214.256 41.2216 214.374 41.0739C214.491 40.9261 214.552 40.7576 214.555 40.5682C214.552 40.3902 214.493 40.2348 214.379 40.1023C214.269 39.9659 214.088 39.8447 213.834 39.7386C213.58 39.6288 213.237 39.5265 212.805 39.4318L211.646 39.1818C210.616 38.9583 209.804 38.5852 209.209 38.0625C208.618 37.536 208.324 36.8182 208.328 35.9091C208.324 35.1705 208.521 34.5246 208.919 33.9716C209.321 33.4148 209.875 32.9811 210.584 32.6705C211.296 32.3598 212.112 32.2045 213.033 32.2045C213.972 32.2045 214.785 32.3617 215.47 32.6761C216.156 32.9905 216.684 33.4337 217.055 34.0057C217.43 34.5739 217.62 35.2386 217.624 36H214.601Z" fill="#FFFFFF"/>
</svg>
