<svg width="188" height="80" viewBox="0 0 188 80" fill="none" xmlns="http://www.w3.org/2000/svg">
<rect width="188" height="80" fill="#161616"/>
<path d="M37.5341 36C37.4886 35.4318 37.2756 34.9886 36.8949 34.6705C36.5199 34.3523 35.9489 34.1932 35.1818 34.1932C34.6932 34.1932 34.2926 34.2528 33.9801 34.3722C33.6733 34.4858 33.446 34.642 33.2983 34.8409C33.1506 35.0398 33.0739 35.267 33.0682 35.5227C33.0568 35.733 33.0938 35.9233 33.179 36.0938C33.2699 36.2585 33.4119 36.4091 33.6051 36.5455C33.7983 36.6761 34.0455 36.7955 34.3466 36.9034C34.6477 37.0114 35.0057 37.108 35.4205 37.1932L36.8523 37.5C37.8182 37.7045 38.6449 37.9744 39.3324 38.3097C40.0199 38.6449 40.5824 39.0398 41.0199 39.4943C41.4574 39.9432 41.7784 40.4489 41.983 41.0114C42.1932 41.5739 42.3011 42.1875 42.3068 42.8523C42.3011 44 42.0142 44.9716 41.446 45.767C40.8778 46.5625 40.0653 47.1676 39.0085 47.5824C37.9574 47.9972 36.6932 48.2045 35.2159 48.2045C33.6989 48.2045 32.375 47.9801 31.2443 47.5312C30.1193 47.0824 29.2443 46.392 28.6193 45.4602C28 44.5227 27.6875 43.3239 27.6818 41.8636H32.1818C32.2102 42.3977 32.3438 42.8466 32.5824 43.2102C32.821 43.5739 33.1563 43.8494 33.5881 44.0369C34.0256 44.2244 34.5455 44.3182 35.1477 44.3182C35.6534 44.3182 36.0767 44.2557 36.4176 44.1307C36.7585 44.0057 37.017 43.8324 37.1932 43.6108C37.3693 43.3892 37.4602 43.1364 37.4659 42.8523C37.4602 42.5852 37.3722 42.3523 37.2017 42.1534C37.0369 41.9489 36.7642 41.767 36.3835 41.608C36.0028 41.4432 35.4886 41.2898 34.8409 41.1477L33.1023 40.7727C31.5568 40.4375 30.3381 39.8778 29.446 39.0938C28.5597 38.304 28.1193 37.2273 28.125 35.8636C28.1193 34.7557 28.4148 33.7869 29.0114 32.9574C29.6136 32.1222 30.446 31.4716 31.5085 31.0057C32.5767 30.5398 33.8011 30.3068 35.1818 30.3068C36.5909 30.3068 37.8097 30.5426 38.8381 31.0142C39.8665 31.4858 40.6591 32.1506 41.2159 33.0085C41.7784 33.8608 42.0625 34.858 42.0682 36H37.5341ZM50.8594 41.5227H54.5412L55.8707 43.1932L58.1207 45.75L61.0526 49.2955H56.8594L54.7798 46.875L53.3821 44.8636L50.8594 41.5227ZM61.0185 39.2727C61.0185 41.2159 60.6406 42.8551 59.8849 44.1903C59.1293 45.5199 58.1094 46.5284 56.8253 47.2159C55.5412 47.8977 54.1094 48.2386 52.5298 48.2386C50.9389 48.2386 49.5014 47.8949 48.2173 47.2074C46.9389 46.5142 45.9219 45.5028 45.1662 44.1733C44.4162 42.8381 44.0412 41.2045 44.0412 39.2727C44.0412 37.3295 44.4162 35.6932 45.1662 34.3636C45.9219 33.0284 46.9389 32.0199 48.2173 31.3381C49.5014 30.6506 50.9389 30.3068 52.5298 30.3068C54.1094 30.3068 55.5412 30.6506 56.8253 31.3381C58.1094 32.0199 59.1293 33.0284 59.8849 34.3636C60.6406 35.6932 61.0185 37.3295 61.0185 39.2727ZM56.1435 39.2727C56.1435 38.2273 56.0043 37.3466 55.7259 36.6307C55.4531 35.9091 55.0469 35.3636 54.5071 34.9943C53.973 34.6193 53.3139 34.4318 52.5298 34.4318C51.7457 34.4318 51.0838 34.6193 50.544 34.9943C50.0099 35.3636 49.6037 35.9091 49.3253 36.6307C49.0526 37.3466 48.9162 38.2273 48.9162 39.2727C48.9162 40.3182 49.0526 41.2017 49.3253 41.9233C49.6037 42.6392 50.0099 43.1847 50.544 43.5597C51.0838 43.929 51.7457 44.1136 52.5298 44.1136C53.3139 44.1136 53.973 43.929 54.5071 43.5597C55.0469 43.1847 55.4531 42.6392 55.7259 41.9233C56.0043 41.2017 56.1435 40.3182 56.1435 39.2727ZM63.2344 48V30.5455H75.5071V34.3636H67.973V37.3636H74.7571V41.1818H67.973V48H63.2344ZM76.7727 34.3636V30.5455H91.9432V34.3636H86.6932V48H82.0227V34.3636H76.7727Z" fill="white"/>
<path d="M101.807 33.8636H100.205C100.193 33.7311 100.163 33.6108 100.114 33.5028C100.066 33.3949 100 33.3021 99.9148 33.2244C99.8314 33.1449 99.7301 33.0843 99.6108 33.0426C99.4915 32.9991 99.3561 32.9773 99.2045 32.9773C98.9394 32.9773 98.715 33.0417 98.5312 33.1705C98.3494 33.2992 98.2112 33.4839 98.1165 33.7244C98.0237 33.965 97.9773 34.2538 97.9773 34.5909C97.9773 34.947 98.0246 35.2453 98.1193 35.4858C98.2159 35.7244 98.3551 35.9044 98.5369 36.0256C98.7188 36.1449 98.9375 36.2045 99.1932 36.2045C99.339 36.2045 99.4697 36.1866 99.5852 36.1506C99.7008 36.1127 99.8011 36.0587 99.8864 35.9886C99.9716 35.9186 100.041 35.8343 100.094 35.7358C100.149 35.6354 100.186 35.5227 100.205 35.3977L101.807 35.4091C101.788 35.6553 101.719 35.9062 101.599 36.1619C101.48 36.4157 101.311 36.6506 101.091 36.8665C100.873 37.0805 100.603 37.2528 100.281 37.3835C99.9593 37.5142 99.5852 37.5795 99.1591 37.5795C98.625 37.5795 98.1458 37.465 97.7216 37.2358C97.2992 37.0066 96.965 36.6695 96.7188 36.2244C96.4744 35.7794 96.3523 35.2348 96.3523 34.5909C96.3523 33.9432 96.4773 33.3977 96.7273 32.9545C96.9773 32.5095 97.3144 32.1733 97.7386 31.946C98.1629 31.7169 98.6364 31.6023 99.1591 31.6023C99.5265 31.6023 99.8646 31.6525 100.173 31.7528C100.482 31.8532 100.753 32 100.986 32.1932C101.219 32.3845 101.406 32.6203 101.548 32.9006C101.69 33.1809 101.777 33.5019 101.807 33.8636ZM108.16 34.5909C108.16 35.2386 108.034 35.785 107.782 36.2301C107.53 36.6733 107.19 37.0095 106.762 37.2386C106.334 37.4659 105.857 37.5795 105.33 37.5795C104.8 37.5795 104.321 37.465 103.893 37.2358C103.467 37.0047 103.128 36.6676 102.876 36.2244C102.626 35.7794 102.501 35.2348 102.501 34.5909C102.501 33.9432 102.626 33.3977 102.876 32.9545C103.128 32.5095 103.467 32.1733 103.893 31.946C104.321 31.7169 104.8 31.6023 105.33 31.6023C105.857 31.6023 106.334 31.7169 106.762 31.946C107.19 32.1733 107.53 32.5095 107.782 32.9545C108.034 33.3977 108.16 33.9432 108.16 34.5909ZM106.535 34.5909C106.535 34.2424 106.488 33.9489 106.396 33.7102C106.305 33.4697 106.169 33.2879 105.989 33.1648C105.811 33.0398 105.592 32.9773 105.33 32.9773C105.069 32.9773 104.848 33.0398 104.668 33.1648C104.49 33.2879 104.355 33.4697 104.262 33.7102C104.171 33.9489 104.126 34.2424 104.126 34.5909C104.126 34.9394 104.171 35.2339 104.262 35.4744C104.355 35.7131 104.49 35.8949 104.668 36.0199C104.848 36.143 105.069 36.2045 105.33 36.2045C105.592 36.2045 105.811 36.143 105.989 36.0199C106.169 35.8949 106.305 35.7131 106.396 35.4744C106.488 35.2339 106.535 34.9394 106.535 34.5909ZM113.925 31.6818V37.5H112.607L110.504 34.4432H110.47V37.5H108.891V31.6818H110.232L112.3 34.7273H112.345V31.6818H113.925ZM114.513 32.9545V31.6818H119.57V32.9545H117.82V37.5H116.263V32.9545H114.513ZM120.164 37.5V31.6818H122.675C123.107 31.6818 123.485 31.7604 123.809 31.9176C124.133 32.0748 124.385 32.3011 124.565 32.5966C124.745 32.892 124.835 33.2462 124.835 33.6591C124.835 34.0758 124.742 34.4271 124.556 34.7131C124.372 34.9991 124.114 35.215 123.781 35.3608C123.449 35.5066 123.062 35.5795 122.619 35.5795H121.119V34.3523H122.3C122.486 34.3523 122.644 34.3295 122.775 34.2841C122.907 34.2367 123.009 34.1619 123.079 34.0597C123.151 33.9574 123.187 33.8239 123.187 33.6591C123.187 33.4924 123.151 33.357 123.079 33.2528C123.009 33.1468 122.907 33.0691 122.775 33.0199C122.644 32.9687 122.486 32.9432 122.3 32.9432H121.744V37.5H120.164ZM123.573 34.8295L125.028 37.5H123.312L121.891 34.8295H123.573ZM127.019 37.5H125.315L127.235 31.6818H129.394L131.315 37.5H129.61L128.337 33.2841H128.292L127.019 37.5ZM126.701 35.2045H129.906V36.3864H126.701V35.2045ZM137.033 33.8636H135.431C135.42 33.7311 135.389 33.6108 135.34 33.5028C135.293 33.3949 135.227 33.3021 135.141 33.2244C135.058 33.1449 134.957 33.0843 134.837 33.0426C134.718 32.9991 134.583 32.9773 134.431 32.9773C134.166 32.9773 133.942 33.0417 133.758 33.1705C133.576 33.2992 133.438 33.4839 133.343 33.7244C133.25 33.965 133.204 34.2538 133.204 34.5909C133.204 34.947 133.251 35.2453 133.346 35.4858C133.442 35.7244 133.582 35.9044 133.763 36.0256C133.945 36.1449 134.164 36.2045 134.42 36.2045C134.566 36.2045 134.696 36.1866 134.812 36.1506C134.927 36.1127 135.028 36.0587 135.113 35.9886C135.198 35.9186 135.267 35.8343 135.32 35.7358C135.375 35.6354 135.412 35.5227 135.431 35.3977L137.033 35.4091C137.014 35.6553 136.945 35.9062 136.826 36.1619C136.707 36.4157 136.537 36.6506 136.317 36.8665C136.1 37.0805 135.83 37.2528 135.508 37.3835C135.186 37.5142 134.812 37.5795 134.386 37.5795C133.852 37.5795 133.372 37.465 132.948 37.2358C132.526 37.0066 132.192 36.6695 131.945 36.2244C131.701 35.7794 131.579 35.2348 131.579 34.5909C131.579 33.9432 131.704 33.3977 131.954 32.9545C132.204 32.5095 132.541 32.1733 132.965 31.946C133.389 31.7169 133.863 31.6023 134.386 31.6023C134.753 31.6023 135.091 31.6525 135.4 31.7528C135.709 31.8532 135.979 32 136.212 32.1932C136.445 32.3845 136.633 32.6203 136.775 32.9006C136.917 33.1809 137.003 33.5019 137.033 33.8636ZM137.591 32.9545V31.6818H142.648V32.9545H140.898V37.5H139.341V32.9545H137.591ZM144.822 31.6818V37.5H143.242V31.6818H144.822ZM150.604 31.6818V37.5H149.286L147.184 34.4432H147.15V37.5H145.57V31.6818H146.911L148.979 34.7273H149.025V31.6818H150.604ZM155.13 33.6023C155.105 33.5019 155.067 33.4138 155.013 33.3381C154.96 33.2604 154.894 33.1951 154.815 33.142C154.737 33.0871 154.646 33.0464 154.542 33.0199C154.44 32.9915 154.327 32.9773 154.204 32.9773C153.939 32.9773 153.712 33.0407 153.525 33.1676C153.339 33.2945 153.197 33.4773 153.099 33.7159C153.002 33.9545 152.954 34.2424 152.954 34.5795C152.954 34.9205 153 35.2121 153.093 35.4545C153.186 35.697 153.324 35.8826 153.508 36.0114C153.692 36.1402 153.92 36.2045 154.192 36.2045C154.433 36.2045 154.633 36.1695 154.792 36.0994C154.953 36.0294 155.073 35.9299 155.153 35.8011C155.232 35.6723 155.272 35.5208 155.272 35.3466L155.545 35.375H154.215V34.25H156.795V35.0568C156.795 35.5871 156.682 36.0407 156.457 36.4176C156.233 36.7926 155.924 37.0805 155.531 37.2812C155.138 37.4801 154.689 37.5795 154.181 37.5795C153.615 37.5795 153.118 37.4593 152.69 37.2188C152.262 36.9782 151.927 36.6354 151.687 36.1903C151.448 35.7453 151.329 35.2159 151.329 34.6023C151.329 34.1212 151.402 33.6951 151.548 33.3239C151.695 32.9527 151.9 32.6392 152.161 32.3835C152.423 32.1259 152.725 31.9318 153.067 31.8011C153.41 31.6686 153.778 31.6023 154.17 31.6023C154.514 31.6023 154.835 31.6515 155.13 31.75C155.427 31.8466 155.69 31.9848 155.917 32.1648C156.146 32.3428 156.331 32.554 156.471 32.7983C156.611 33.0426 156.696 33.3106 156.727 33.6023H155.13Z" fill="white"/>
<path d="M99.5114 43.5C99.4962 43.3106 99.4252 43.1629 99.2983 43.0568C99.1733 42.9508 98.983 42.8977 98.7273 42.8977C98.5644 42.8977 98.4309 42.9176 98.3267 42.9574C98.2244 42.9953 98.1487 43.0473 98.0994 43.1136C98.0502 43.1799 98.0246 43.2557 98.0227 43.3409C98.0189 43.411 98.0313 43.4744 98.0597 43.5312C98.09 43.5862 98.1373 43.6364 98.2017 43.6818C98.2661 43.7254 98.3485 43.7652 98.4489 43.8011C98.5492 43.8371 98.6686 43.8693 98.8068 43.8977L99.2841 44C99.6061 44.0682 99.8816 44.1581 100.111 44.2699C100.34 44.3816 100.527 44.5133 100.673 44.6648C100.819 44.8144 100.926 44.983 100.994 45.1705C101.064 45.358 101.1 45.5625 101.102 45.7841C101.1 46.1667 101.005 46.4905 100.815 46.7557C100.626 47.0208 100.355 47.2225 100.003 47.3608C99.6525 47.4991 99.2311 47.5682 98.7386 47.5682C98.233 47.5682 97.7917 47.4934 97.4148 47.3438C97.0398 47.1941 96.7481 46.964 96.5398 46.6534C96.3333 46.3409 96.2292 45.9413 96.2273 45.4545H97.7273C97.7367 45.6326 97.7813 45.7822 97.8608 45.9034C97.9403 46.0246 98.0521 46.1165 98.196 46.179C98.3419 46.2415 98.5152 46.2727 98.7159 46.2727C98.8845 46.2727 99.0256 46.2519 99.1392 46.2102C99.2528 46.1686 99.339 46.1108 99.3977 46.0369C99.4564 45.9631 99.4867 45.8788 99.4886 45.7841C99.4867 45.6951 99.4574 45.6174 99.4006 45.5511C99.3456 45.483 99.2547 45.4223 99.1278 45.3693C99.0009 45.3144 98.8295 45.2633 98.6136 45.2159L98.0341 45.0909C97.5189 44.9792 97.1127 44.7926 96.8153 44.5312C96.5199 44.268 96.3731 43.9091 96.375 43.4545C96.3731 43.0852 96.4716 42.7623 96.6705 42.4858C96.8712 42.2074 97.1487 41.9905 97.5028 41.8352C97.8589 41.6799 98.267 41.6023 98.7273 41.6023C99.197 41.6023 99.6032 41.6809 99.946 41.8381C100.289 41.9953 100.553 42.2169 100.739 42.5028C100.926 42.7869 101.021 43.1193 101.023 43.5H99.5114ZM101.703 47.5V41.6818H105.896V42.9545H103.283V43.9545H105.68V45.2273H103.283V46.2273H105.885V47.5H101.703ZM106.68 47.5V41.6818H109.191C109.623 41.6818 110.001 41.7604 110.325 41.9176C110.648 42.0748 110.9 42.3011 111.08 42.5966C111.26 42.892 111.35 43.2462 111.35 43.6591C111.35 44.0758 111.257 44.4271 111.072 44.7131C110.888 44.9991 110.629 45.215 110.296 45.3608C109.965 45.5066 109.577 45.5795 109.134 45.5795H107.634V44.3523H108.816C109.002 44.3523 109.16 44.3295 109.29 44.2841C109.423 44.2367 109.524 44.1619 109.594 44.0597C109.666 43.9574 109.702 43.8239 109.702 43.6591C109.702 43.4924 109.666 43.357 109.594 43.2528C109.524 43.1468 109.423 43.0691 109.29 43.0199C109.16 42.9687 109.002 42.9432 108.816 42.9432H108.259V47.5H106.68ZM110.089 44.8295L111.543 47.5H109.827L108.407 44.8295H110.089ZM113.435 41.6818L114.628 45.7841H114.673L115.866 41.6818H117.651L115.73 47.5H113.571L111.651 41.6818H113.435ZM119.79 41.6818V47.5H118.211V41.6818H119.79ZM125.971 43.8636H124.369C124.357 43.7311 124.327 43.6108 124.278 43.5028C124.23 43.3949 124.164 43.3021 124.079 43.2244C123.996 43.1449 123.894 43.0843 123.775 43.0426C123.656 42.9991 123.52 42.9773 123.369 42.9773C123.103 42.9773 122.879 43.0417 122.695 43.1705C122.513 43.2992 122.375 43.4839 122.281 43.7244C122.188 43.965 122.141 44.2538 122.141 44.5909C122.141 44.947 122.189 45.2453 122.283 45.4858C122.38 45.7244 122.519 45.9044 122.701 46.0256C122.883 46.1449 123.102 46.2045 123.357 46.2045C123.503 46.2045 123.634 46.1866 123.749 46.1506C123.865 46.1127 123.965 46.0587 124.05 45.9886C124.136 45.9186 124.205 45.8343 124.258 45.7358C124.313 45.6354 124.35 45.5227 124.369 45.3977L125.971 45.4091C125.952 45.6553 125.883 45.9062 125.763 46.1619C125.644 46.4157 125.475 46.6506 125.255 46.8665C125.037 47.0805 124.767 47.2528 124.445 47.3835C124.123 47.5142 123.749 47.5795 123.323 47.5795C122.789 47.5795 122.31 47.465 121.886 47.2358C121.463 47.0066 121.129 46.6695 120.883 46.2244C120.638 45.7794 120.516 45.2348 120.516 44.5909C120.516 43.9432 120.641 43.3977 120.891 42.9545C121.141 42.5095 121.478 42.1733 121.903 41.946C122.327 41.7169 122.8 41.6023 123.323 41.6023C123.691 41.6023 124.029 41.6525 124.337 41.7528C124.646 41.8532 124.917 42 125.15 42.1932C125.383 42.3845 125.57 42.6203 125.712 42.9006C125.854 43.1809 125.941 43.5019 125.971 43.8636ZM126.688 47.5V41.6818H130.881V42.9545H128.267V43.9545H130.665V45.2273H128.267V46.2273H130.869V47.5H126.688ZM134.8 43.5C134.785 43.3106 134.714 43.1629 134.587 43.0568C134.462 42.9508 134.272 42.8977 134.016 42.8977C133.853 42.8977 133.72 42.9176 133.616 42.9574C133.513 42.9953 133.438 43.0473 133.388 43.1136C133.339 43.1799 133.314 43.2557 133.312 43.3409C133.308 43.411 133.32 43.4744 133.349 43.5312C133.379 43.5862 133.426 43.6364 133.491 43.6818C133.555 43.7254 133.638 43.7652 133.738 43.8011C133.838 43.8371 133.958 43.8693 134.096 43.8977L134.573 44C134.895 44.0682 135.171 44.1581 135.4 44.2699C135.629 44.3816 135.817 44.5133 135.962 44.6648C136.108 44.8144 136.215 44.983 136.283 45.1705C136.353 45.358 136.389 45.5625 136.391 45.7841C136.389 46.1667 136.294 46.4905 136.104 46.7557C135.915 47.0208 135.644 47.2225 135.292 47.3608C134.942 47.4991 134.52 47.5682 134.028 47.5682C133.522 47.5682 133.081 47.4934 132.704 47.3438C132.329 47.1941 132.037 46.964 131.829 46.6534C131.622 46.3409 131.518 45.9413 131.516 45.4545H133.016C133.026 45.6326 133.07 45.7822 133.15 45.9034C133.229 46.0246 133.341 46.1165 133.485 46.179C133.631 46.2415 133.804 46.2727 134.005 46.2727C134.174 46.2727 134.315 46.2519 134.428 46.2102C134.542 46.1686 134.628 46.1108 134.687 46.0369C134.746 45.9631 134.776 45.8788 134.778 45.7841C134.776 45.6951 134.746 45.6174 134.69 45.5511C134.635 45.483 134.544 45.4223 134.417 45.3693C134.29 45.3144 134.119 45.2633 133.903 45.2159L133.323 45.0909C132.808 44.9792 132.402 44.7926 132.104 44.5312C131.809 44.268 131.662 43.9091 131.664 43.4545C131.662 43.0852 131.761 42.7623 131.96 42.4858C132.16 42.2074 132.438 41.9905 132.792 41.8352C133.148 41.6799 133.556 41.6023 134.016 41.6023C134.486 41.6023 134.892 41.6809 135.235 41.8381C135.578 41.9953 135.842 42.2169 136.028 42.5028C136.215 42.7869 136.31 43.1193 136.312 43.5H134.8Z" fill="white"/>
</svg>
